<svg xmlns="http://www.w3.org/2000/svg" viewBox="0 0 512 512">
  <defs>
    <linearGradient id="g" x1="0" x2="1" y1="0" y2="1">
      <stop offset="0" stop-color="#e15a50"/>
      <stop offset="1" stop-color="#8f2522"/>
    </linearGradient>
  </defs>
  <rect width="512" height="512" rx="112" fill="#111315"/>
  <rect x="112" y="76" width="288" height="360" rx="34" fill="url(#g)" stroke="#ffd0cb" stroke-width="14"/>
  <path d="M256 143c-62 46-94 88-94 127 0 45 36 81 81 81 12 0 24-3 34-8-4 17-12 32-28 46h64c-16-14-24-29-28-46 10 5 22 8 34 8 45 0 81-36 81-81 0-39-32-81-94-127l-25-19-25 19z" fill="#fff" opacity=".94" transform="translate(-25 0) scale(.95)"/>
</svg>
